<?xml version="1.0" standalone="no"?>
<!DOCTYPE svg PUBLIC "-//W3C//DTD SVG 20010904//EN"
 "http://www.w3.org/TR/2001/REC-SVG-20010904/DTD/svg10.dtd">
<svg version="1.0" xmlns="http://www.w3.org/2000/svg"
 width="500.000000pt" height="500.000000pt" viewBox="0 0 500.000000 500.000000"
 preserveAspectRatio="xMidYMid meet">

<g transform="translate(0.000000,500.000000) scale(0.100000,-0.100000)"
fill="#000000" stroke="none">
<path d="M2920 3940 c0 -5 5 -10 11 -10 5 0 7 5 4 10 -3 6 -8 10 -11 10 -2 0
-4 -4 -4 -10z"/>
<path d="M3047 3899 c7 -7 15 -10 18 -7 3 3 -2 9 -12 12 -14 6 -15 5 -6 -5z"/>
<path d="M1914 3648 l-19 -23 23 19 c21 18 27 26 19 26 -2 0 -12 -10 -23 -22z"/>
<path d="M2979 3533 c-13 -15 -17 -22 -8 -15 9 6 20 8 24 4 5 -4 5 -2 1 5 -3
6 2 16 11 22 10 6 13 11 7 11 -6 0 -21 -12 -35 -27z"/>
<path d="M2010 3456 c0 -3 9 -10 20 -16 11 -6 20 -8 20 -6 0 3 -9 10 -20 16
-11 6 -20 8 -20 6z"/>
<path d="M2185 3430 c6 -10 4 -12 -11 -6 -15 6 -17 5 -6 -5 9 -9 15 -10 23 -2
8 8 7 13 -2 18 -8 6 -10 4 -4 -5z"/>
<path d="M2799 3373 c-13 -16 -12 -17 4 -4 16 13 21 21 13 21 -2 0 -10 -8 -17
-17z"/>
<path d="M2107 3369 c7 -7 15 -10 18 -7 3 3 -2 9 -12 12 -14 6 -15 5 -6 -5z"/>
<path d="M2723 3325 c0 -8 4 -12 9 -9 5 3 6 10 3 15 -9 13 -12 11 -12 -6z"/>
<path d="M1780 3286 c0 -2 8 -10 18 -17 15 -13 16 -12 3 4 -13 16 -21 21 -21
13z"/>
<path d="M1776 3257 c3 -10 9 -15 12 -12 3 3 0 11 -7 18 -10 9 -11 8 -5 -6z"/>
<path d="M2605 3250 c-3 -6 1 -7 9 -4 18 7 21 14 7 14 -6 0 -13 -4 -16 -10z"/>
<path d="M1829 3193 c-13 -16 -12 -17 4 -4 16 13 21 21 13 21 -2 0 -10 -8 -17
-17z"/>
<path d="M1585 3129 c-4 -6 -5 -12 -2 -15 2 -3 7 2 10 11 7 17 1 20 -8 4z"/>
<path d="M2882 2680 c-21 -34 -15 -50 18 -50 70 0 136 -52 160 -126 30 -90
-58 -205 -157 -204 -15 0 -47 9 -71 20 l-43 20 -27 -25 c-70 -66 -202 -98
-290 -72 -51 15 -55 14 -73 -4 -14 -14 -16 -21 -7 -24 77 -28 107 -35 147 -35
78 0 186 37 234 78 14 13 24 13 56 4 119 -36 238 24 277 140 33 99 -13 205
-108 252 -29 14 -59 26 -68 26 -9 0 -20 4 -26 10 -6 6 -14 3 -22 -10z"/>
<path d="M2851 2574 c-26 -33 -27 -49 -2 -51 11 -1 23 8 30 23 12 28 33 31 55
8 26 -25 19 -41 -50 -115 -36 -38 -63 -73 -60 -77 2 -4 40 -6 85 -4 62 3 81 7
81 18 0 10 -12 14 -40 14 -22 0 -40 3 -40 8 0 4 16 27 35 51 42 53 51 81 34
113 -16 32 -28 38 -71 38 -28 0 -42 -6 -57 -26z"/>
<path d="M2729 2517 c-9 -7 -19 -29 -23 -50 -15 -83 -106 -142 -186 -120 -35
9 -39 8 -49 -13 -9 -21 -7 -24 26 -35 119 -39 251 50 261 178 5 54 -1 62 -29
40z"/>
<path d="M1915 2393 c11 -48 53 -110 98 -146 101 -83 234 -87 334 -11 42 32
116 131 108 144 -9 15 -65 12 -65 -3 0 -8 -13 -33 -30 -55 -87 -121 -268 -115
-359 12 -20 27 -36 53 -36 57 0 12 -15 23 -36 26 -19 3 -20 0 -14 -24z"/>
<path d="M1615 2130 c3 -5 8 -10 11 -10 2 0 4 5 4 10 0 6 -5 10 -11 10 -5 0
-7 -4 -4 -10z"/>
<path d="M1630 2090 c6 -11 13 -20 16 -20 2 0 0 9 -6 20 -6 11 -13 20 -16 20
-2 0 0 -9 6 -20z"/>
<path d="M3515 2060 c-3 -6 1 -7 9 -4 18 7 21 14 7 14 -6 0 -13 -4 -16 -10z"/>
<path d="M3456 1963 c-6 -14 -5 -15 5 -6 7 7 10 15 7 18 -3 3 -9 -2 -12 -12z"/>
<path d="M3415 1929 c-3 -4 2 -6 10 -5 21 3 28 13 10 13 -9 0 -18 -4 -20 -8z"/>
<path d="M3373 1878 c1 -7 -3 -12 -10 -13 -7 0 -18 -7 -25 -15 -11 -12 -11
-12 5 -1 9 7 17 10 17 6 0 -4 7 -2 15 5 17 14 20 30 5 30 -5 0 -9 -5 -7 -12z"/>
<path d="M1840 1838 c41 -45 50 -53 50 -45 0 2 -21 23 -47 47 l-48 45 45 -47z"/>
<path d="M1980 1726 c0 -2 8 -10 18 -17 15 -13 16 -12 3 4 -13 16 -21 21 -21
13z"/>
<path d="M2190 1676 c0 -2 7 -7 16 -10 8 -3 12 -2 9 4 -6 10 -25 14 -25 6z"/>
<path d="M3055 1671 c-3 -5 -2 -12 3 -15 5 -3 9 1 9 9 0 17 -3 19 -12 6z"/>
<path d="M2985 1610 c-3 -6 1 -7 9 -4 18 7 21 14 7 14 -6 0 -13 -4 -16 -10z"/>
<path d="M603 1315 c-32 -14 -53 -41 -53 -69 0 -25 42 -45 108 -52 91 -10 64
-25 -30 -18 -65 6 -80 5 -76 -6 16 -49 131 -76 201 -47 38 16 63 57 53 84 -9
21 -70 43 -121 43 -29 0 -44 4 -40 10 4 7 33 8 82 4 70 -6 75 -6 71 12 -8 45
-126 69 -195 39z"/>
<path d="M850 1220 l0 -110 45 0 45 0 0 110 0 110 -45 0 -45 0 0 -110z"/>
<path d="M994 1315 c-3 -8 -4 -56 -2 -107 l3 -93 125 0 124 0 0 25 c0 24 -1
25 -82 28 l-82 3 0 79 0 80 -40 0 c-26 0 -43 -5 -46 -15z"/>
<path d="M1306 1243 c73 -135 71 -133 114 -133 37 0 40 2 83 78 24 42 52 92
61 110 l17 32 -45 0 -44 0 -33 -75 c-18 -41 -36 -75 -39 -75 -4 0 -22 34 -40
75 l-33 75 -44 0 -45 0 48 -87z"/>
<path d="M1620 1220 l0 -110 125 0 125 0 0 30 0 30 -85 0 c-69 0 -85 3 -85 15
0 12 14 15 70 15 63 0 70 2 70 20 0 18 -7 20 -70 20 -56 0 -70 3 -70 15 0 12
16 15 80 15 l80 0 0 30 0 30 -120 0 -120 0 0 -110z"/>
<path d="M1920 1221 l0 -111 40 0 c38 0 40 2 40 30 0 29 1 30 51 30 47 0 52
-2 62 -30 10 -27 16 -30 53 -30 38 0 41 2 37 25 -3 13 -12 30 -19 36 -13 10
-12 15 6 34 29 31 23 72 -13 99 -24 18 -46 21 -143 25 l-114 3 0 -111z m195
29 c0 -11 -14 -16 -57 -18 -53 -3 -58 -1 -58 18 0 19 5 21 58 18 43 -2 57 -7
57 -18z"/>
<path d="M2703 1320 c-100 -31 -96 -171 5 -200 90 -25 212 8 212 57 0 16 -85
19 -95 3 -9 -14 -78 -13 -93 2 -15 15 -15 61 0 76 15 15 84 16 93 2 3 -5 26
-10 51 -10 37 0 45 3 42 16 -2 9 -15 26 -29 36 -31 23 -136 33 -186 18z"/>
<path d="M3018 1222 l-67 -107 41 -3 c30 -2 46 1 54 12 16 22 152 23 160 1 4
-10 20 -15 50 -15 24 0 44 2 44 4 0 3 -30 52 -66 110 l-66 106 -42 0 -41 0
-67 -108z m130 13 c16 -35 16 -35 -23 -35 l-36 0 16 30 c19 37 28 38 43 5z"/>
<path d="M3340 1220 l0 -110 45 0 c44 0 45 1 45 31 0 30 1 30 47 27 41 -3 50
-7 61 -30 11 -24 19 -28 54 -28 39 0 40 1 34 28 -4 15 -13 32 -21 38 -11 8
-10 12 6 22 21 13 26 61 9 92 -15 28 -71 40 -182 40 l-98 0 0 -110z m200 30
c0 -18 -7 -20 -55 -20 -48 0 -55 2 -55 20 0 18 7 20 55 20 48 0 55 -2 55 -20z"/>
<path d="M3680 1220 l0 -112 128 4 c74 2 136 9 150 16 30 17 30 67 0 83 -19
10 -19 12 -5 21 23 13 21 51 -4 74 -18 16 -40 20 -145 23 l-124 3 0 -112z
m190 35 c0 -5 -25 -11 -55 -13 -45 -2 -55 0 -55 13 0 13 10 15 55 13 30 -2 55
-7 55 -13z m10 -70 c0 -12 -13 -15 -60 -15 -47 0 -60 3 -60 15 0 12 13 15 60
15 47 0 60 -3 60 -15z"/>
<path d="M4079 1314 c-58 -24 -80 -91 -49 -149 28 -52 153 -70 232 -35 52 24
67 114 26 157 -40 42 -141 55 -209 27z m133 -61 c22 -20 23 -41 1 -65 -33 -37
-113 -15 -113 32 0 46 74 68 112 33z"/>
<path d="M4360 1220 l0 -110 45 0 44 0 3 72 3 73 59 -73 60 -72 53 0 53 0 0
110 0 110 -45 0 -44 0 -3 -72 -3 -73 -60 72 -60 73 -52 0 -53 0 0 -110z"/>
</g>
</svg>
